<?xml version="1.0" encoding="UTF-8" standalone="no"?>
<!-- Created with Inkscape (http://www.inkscape.org/) -->

<svg
   version="1.1"
   id="svg2"
   width="930.66669"
   height="1452"
   viewBox="0 0 930.66669 1452"
   sodipodi:docname="provenance-pdb-tools.svg"
   inkscape:version="1.2.2 (732a01da63, 2022-12-09)"
   xmlns:inkscape="http://www.inkscape.org/namespaces/inkscape"
   xmlns:sodipodi="http://sodipodi.sourceforge.net/DTD/sodipodi-0.dtd"
   xmlns="http://www.w3.org/2000/svg"
   xmlns:svg="http://www.w3.org/2000/svg">
  <defs
     id="defs6" />
  <sodipodi:namedview
     id="namedview4"
     pagecolor="#ffffff"
     bordercolor="#000000"
     borderopacity="0.25"
     inkscape:showpageshadow="2"
     inkscape:pageopacity="0.0"
     inkscape:pagecheckerboard="0"
     inkscape:deskcolor="#d1d1d1"
     showgrid="false"
     inkscape:zoom="1.0002736"
     inkscape:cx="422.88428"
     inkscape:cy="800.28101"
     inkscape:window-width="1918"
     inkscape:window-height="2080"
     inkscape:window-x="-7"
     inkscape:window-y="0"
     inkscape:window-maximized="0"
     inkscape:current-layer="g12">
    <inkscape:page
       x="0"
       y="0"
       id="page8"
       width="930.66669"
       height="1452" />
  </sodipodi:namedview>
  <g
     id="g10"
     inkscape:groupmode="layer"
     inkscape:label="Page 1"
     transform="matrix(1.3333333,0,0,1.3333333,0,3.63e-5)">
    <g
       id="g12">
      <path
         d="m 506.789,1021.832 c 0,14.766 -50.305,26.738 -112.359,26.738 -62.055,0 -112.36,-11.972 -112.36,-26.738 0,-14.77 50.305,-26.742 112.36,-26.742 62.054,0 112.359,11.972 112.359,26.742"
         style="fill:#30ba08;fill-opacity:0.60262007;fill-rule:nonzero;stroke:none"
         id="path14" />
      <path
         d="m 506.789,1021.832 c 0,14.766 -50.305,26.738 -112.359,26.738 -62.055,0 -112.36,-11.972 -112.36,-26.738 0,-14.77 50.305,-26.742 112.36,-26.742 62.054,0 112.359,11.972 112.359,26.742"
         style="fill:none;stroke:none;stroke-width:6;stroke-linecap:butt;stroke-linejoin:miter;stroke-miterlimit:10;stroke-dasharray:none;stroke-opacity:1"
         id="path16" />
      <text
         xml:space="preserve"
         transform="translate(322.92969,1018.0312)"
         style="font-variant:normal;font-weight:normal;font-size:14.0002px;font-family:'Times New Roman';-inkscape-font-specification:TimesNewRomanPSMT;writing-mode:lr-tb;fill:#000000;fill-opacity:1;fill-rule:nonzero;stroke:none"
         id="text22"><tspan
           x="0 7.5041308 11.242196 17.990314 24.738432 28.476496 34.468601 38.962681 42.700745 46.438808 52.430912 62.175083 68.167191 71.905251 77.883354 81.635422 86.143501 92.891617 99.63974 106.38786 113.13597 119.88409 126.64621 131.14029 137.8884"
           y="0"
           sodipodi:role="line"
           id="tspan18">SinglefileData (269db4f6)</tspan><tspan
           x="54.499996 59.750088 63.488152 70.236267 76.98439 83.732506"
           y="15.000001"
           sodipodi:role="line"
           id="tspan20">stdout</tspan></text>
      <path
         d="m 263.648,305.609 c 0,14.77 -47.109,26.743 -105.218,26.743 -58.11,0 -105.219,-11.973 -105.219,-26.743 0,-14.769 47.109,-26.738 105.219,-26.738 58.109,0 105.218,11.969 105.218,26.738"
         style="fill:#00719e;fill-opacity:0.6017316;fill-rule:nonzero;stroke:none;stroke-opacity:1"
         id="path24" />
      <text
         xml:space="preserve"
         transform="translate(110.92969,301.80859)"
         style="font-variant:normal;font-weight:normal;font-size:14.0002px;font-family:'Times New Roman';-inkscape-font-specification:TimesNewRomanPSMT;writing-mode:lr-tb;fill:#000000;fill-opacity:1;fill-rule:nonzero;stroke:none"
         id="text30"><tspan
           x="0 8.9881563 15.736275 22.484392 28.476496 32.228561 36.722641 43.470757 50.218876 56.210979 62.959099 69.707214 76.45533 83.217453 89.965569"
           y="0"
           sodipodi:role="line"
           id="tspan26">Code (42c753d9)</tspan><tspan
           x="-18.999998 -12.25188 -5.5037618 1.2443557 8.0064735 13.242565 19.234669 22.972734 28.964838 35.712955 41.705059 45.443127 52.191242 64.931465 68.669533 75.417648 81.409752 87.387856 91.125923 97.874039 104.63615 109.87225"
           y="15.000001"
           sodipodi:role="line"
           id="tspan28">pdb_selchain@localhost</tspan></text>
      <path
         d="m 256.93,398.48 h 275 v 53 h -275 z"
         style="fill:#fe7d17;fill-opacity:0.70129865;fill-rule:nonzero;stroke:none"
         id="path32" />
      <text
         xml:space="preserve"
         transform="translate(264.92969,413.67969)"
         style="font-variant:normal;font-weight:normal;font-size:14.0002px;font-family:'Times New Roman';-inkscape-font-specification:TimesNewRomanPSMT;writing-mode:lr-tb;fill:#000000;fill-opacity:1;fill-rule:nonzero;stroke:none"
         id="text40"><tspan
           x="0 7.5041308 14.252249 20.230352 23.968418 27.706482 32.956573 39.704693 46.466808 54.698952 61.447071 68.19519 74.943306 81.691422 86.941513 92.933617 96.671684 102.66379 109.4119 115.40401 119.14207 125.8902 138.61641 142.36848 149.11659 155.0947 161.08681 164.82487 171.57298 178.32111 183.5712 187.30927 195.5554 199.29347 203.80156 210.54967 217.29779 223.28989 229.26799 236.03012 242.77823 249.52635 254.02043"
           y="0"
           sodipodi:role="line"
           id="tspan34">ShellJob&lt;pdb_selchain@localhost&gt; (42ae868f)</tspan><tspan
           x="89.999992 97.504128 101.24219 107.22029 110.95836 116.95046 120.68853 124.4406 128.93468 132.67274 139.42085 143.15892 148.40901 155.15714 161.14923"
           y="15.000001"
           sodipodi:role="line"
           id="tspan36">State: finished</tspan><tspan
           x="94.499992 102.73214 109.49426 113.23232 116.97039 120.70845 129.69661 136.44473 143.20685 149.18495 152.92302 156.67508"
           y="30.000004"
           sodipodi:role="line"
           id="tspan38">Exit Code: 0</tspan></text>
      <path
         d="m 205.055,329.797 c 36.89,18.348 88.683,44.105 128.785,64.051"
         style="fill:none;stroke:#000000;stroke-width:1;stroke-linecap:butt;stroke-linejoin:miter;stroke-miterlimit:10;stroke-dasharray:none;stroke-opacity:1"
         id="path42" />
      <path
         d="m 335.59,390.809 7.394,7.586 -10.511,-1.321 z"
         style="fill:#000000;fill-opacity:1;fill-rule:nonzero;stroke:#000000;stroke-width:1;stroke-linecap:butt;stroke-linejoin:miter;stroke-miterlimit:10;stroke-dasharray:none;stroke-opacity:1"
         id="path44" />
      <text
         xml:space="preserve"
         style="font-variant:normal;font-weight:normal;font-size:14.0002px;font-family:'Times New Roman';-inkscape-font-specification:TimesNewRomanPSMT;writing-mode:lr-tb;fill:#000000;fill-opacity:1;fill-rule:nonzero;stroke:none"
         id="text50"
         x="300.18112"
         y="360.9299"><tspan
           x="300.18112 304.6752 314.43338 321.92349 331.66766 339.91382 346.66193 355.65009 365.39426 373.64041"
           y="360.9299"
           sodipodi:role="line"
           id="tspan46">INPUT_CALC</tspan><tspan
           x="328.68112 334.67325 341.42136 348.16946"
           y="375.9299"
           sodipodi:role="line"
           id="tspan48">code</tspan></text>
      <path
         d="m 264.789,544.352 c 0,14.765 -50.305,26.738 -112.359,26.738 -62.055,0 -112.36,-11.973 -112.36,-26.738 0,-14.77 50.305,-26.743 112.36,-26.743 62.054,0 112.359,11.973 112.359,26.743"
         style="fill:#00719e;fill-opacity:0.6017316;fill-rule:nonzero;stroke:none;stroke-opacity:1"
         id="path52" />
      <text
         xml:space="preserve"
         transform="translate(107.42969,540.55078)"
         style="font-variant:normal;font-weight:normal;font-size:14.0002px;font-family:'Times New Roman';-inkscape-font-specification:TimesNewRomanPSMT;writing-mode:lr-tb;fill:#000000;fill-opacity:1;fill-rule:nonzero;stroke:none"
         id="text58"><tspan
           x="0 8.9881563 15.736275 22.484392 28.476496 32.228561 36.722641 42.714745 49.462864 56.210979 62.959099 67.467178 71.961258 78.709373 84.701477"
           y="0"
           sodipodi:role="line"
           id="tspan54">Code (a968ff3e)</tspan><tspan
           x="-26.499998 -19.751881 -13.003762 -6.2556448 0.50647283 7.2545905 13.232695 16.97076 23.732878 29.710981 33.449047 39.441151 43.179218 54.421413 67.161636 70.899696 77.64782 83.625923 89.618027 93.356094 100.10421 106.85233 112.10242"
           y="15.000001"
           sodipodi:role="line"
           id="tspan56">pdb_delhetatm@localhost</tspan></text>
      <path
         d="m 250.43,637.219 h 288 v 53 h -288 z"
         style="fill:#fe7d17;fill-opacity:0.70129865;fill-rule:nonzero;stroke:none"
         id="path60" />
      <text
         xml:space="preserve"
         transform="translate(258.42969,652.42187)"
         style="font-variant:normal;font-weight:normal;font-size:14.0002px;font-family:'Times New Roman';-inkscape-font-specification:TimesNewRomanPSMT;writing-mode:lr-tb;fill:#000000;fill-opacity:1;fill-rule:nonzero;stroke:none"
         id="text68"><tspan
           x="0 7.5041308 14.252249 20.230352 23.968418 27.706482 32.956573 39.704693 46.466808 54.698952 61.447071 68.19519 74.943306 81.691422 88.453545 94.431648 98.169708 104.91783 110.90993 114.64799 120.64011 124.37817 135.62036 148.34659 152.08466 158.84677 164.82487 170.81697 174.55504 181.30316 188.05128 193.30138 197.03943 205.27158 209.02364 213.53172 220.27985 227.02795 233.77608 240.52419 247.27231 254.03442 260.78253 266.76065"
           y="0"
           sodipodi:role="line"
           id="tspan62">ShellJob&lt;pdb_delhetatm@localhost&gt; (5374374e)</tspan><tspan
           x="96.5 104.00413 107.7422 113.7203 117.45837 123.45047 127.18854 130.9406 135.43468 139.17274 145.92087 149.65892 154.90901 161.65714 167.64925"
           y="15.000001"
           sodipodi:role="line"
           id="tspan64">State: finished</tspan><tspan
           x="101 109.23215 115.99426 119.73233 123.47039 127.20846 136.19661 142.94473 149.70685 155.68495 159.42302 163.17508"
           y="30.000004"
           sodipodi:role="line"
           id="tspan66">Exit Code: 0</tspan></text>
      <path
         d="m 200.531,568.68 c 37.93,18.398 91.102,44.183 132.172,64.105"
         style="fill:none;stroke:#000000;stroke-width:1;stroke-linecap:butt;stroke-linejoin:miter;stroke-miterlimit:10;stroke-dasharray:none;stroke-opacity:1"
         id="path70" />
      <path
         d="m 334.332,629.684 7.473,7.511 -10.528,-1.215 z"
         style="fill:#000000;fill-opacity:1;fill-rule:nonzero;stroke:#000000;stroke-width:1;stroke-linecap:butt;stroke-linejoin:miter;stroke-miterlimit:10;stroke-dasharray:none;stroke-opacity:1"
         id="path72" />
      <text
         xml:space="preserve"
         style="font-variant:normal;font-weight:normal;font-size:14.0002px;font-family:'Times New Roman';-inkscape-font-specification:TimesNewRomanPSMT;writing-mode:lr-tb;fill:#000000;fill-opacity:1;fill-rule:nonzero;stroke:none"
         id="text78"
         x="300.18112"
         y="598.17249"><tspan
           x="300.18112 304.6752 314.43338 321.92349 331.66766 339.91382 346.66193 355.65009 365.39426 373.64041"
           y="598.17249"
           sodipodi:role="line"
           id="tspan74">INPUT_CALC</tspan><tspan
           x="328.68112 334.67322 341.42136 348.16946"
           y="613.17249"
           sodipodi:role="line"
           id="tspan76">code</tspan></text>
      <path
         d="m 266.621,783.09 c 0,14.769 -39.933,26.742 -89.191,26.742 -49.258,0 -89.192,-11.973 -89.192,-26.742 0,-14.77 39.934,-26.738 89.192,-26.738 49.258,0 89.191,11.968 89.191,26.738"
         style="fill:#00719e;fill-opacity:0.6017316;fill-rule:nonzero;stroke:none;stroke-opacity:1"
         id="path80" />
      <text
         xml:space="preserve"
         transform="translate(129.42969,779.28906)"
         style="font-variant:normal;font-weight:normal;font-size:14.0002px;font-family:'Times New Roman';-inkscape-font-specification:TimesNewRomanPSMT;writing-mode:lr-tb;fill:#000000;fill-opacity:1;fill-rule:nonzero;stroke:none"
         id="text86"><tspan
           x="0 8.9881563 15.736275 22.484392 28.476496 32.228561 36.722641 43.470757 50.218876 56.980991 63.729111 70.477226 77.225349 83.973465 90.721581"
           y="0"
           sodipodi:role="line"
           id="tspan82">Code (1d792554)</tspan><tspan
           x="-6.9999962 -0.25187838 6.4962392 13.244357 20.006475 23.744539 27.482605 34.230724 40.97884 53.719063 57.457127 64.205246 70.19735 76.175453 79.913521 86.661636 93.423752 98.659843"
           y="15.000001"
           sodipodi:role="line"
           id="tspan84">pdb_tidy@localhost</tspan></text>
      <path
         d="m 269.43,875.961 h 250 v 53 h -250 z"
         style="fill:#fe7d17;fill-opacity:0.70129865;fill-rule:nonzero;stroke:none"
         id="path88" />
      <text
         xml:space="preserve"
         transform="translate(277.42969,891.16016)"
         style="font-variant:normal;font-weight:normal;font-size:14.0002px;font-family:'Times New Roman';-inkscape-font-specification:TimesNewRomanPSMT;writing-mode:lr-tb;fill:#000000;fill-opacity:1;fill-rule:nonzero;stroke:none"
         id="text96"><tspan
           x="0 7.5041308 14.252249 20.230352 23.968418 27.706482 32.956573 39.704693 46.466808 54.698952 61.447071 68.19519 74.943306 81.691422 85.429489 89.167557 95.929672 102.67779 115.41801 119.15607 125.9042 131.88229 137.8744 141.61247 148.36058 155.1087 160.3588 164.09686 172.343 176.08107 180.58914 187.33727 193.32938 200.07748 206.0696 212.8177 219.56583 224.05991 228.56798"
           y="0"
           sodipodi:role="line"
           id="tspan90">ShellJob&lt;pdb_tidy@localhost&gt; (da1e8dff)</tspan><tspan
           x="77.5 85.004135 88.742195 94.720306 98.458366 104.45047 108.18854 111.94061 116.43468 120.17274 126.92086 130.65894 135.90903 142.65714 148.64925"
           y="15.000001"
           sodipodi:role="line"
           id="tspan92">State: finished</tspan><tspan
           x="82 90.232147 96.994263 100.73233 104.4704 108.20846 117.19662 123.94473 130.70685 136.68495 140.42302 144.17508"
           y="30.000004"
           sodipodi:role="line"
           id="tspan94">Exit Code: 0</tspan></text>
      <path
         d="m 216.953,807.273 c 25.609,14.84 59.789,34.313 90.477,50.688 8.293,4.426 17.093,8.984 25.789,13.406"
         style="fill:none;stroke:#000000;stroke-width:1;stroke-linecap:butt;stroke-linejoin:miter;stroke-miterlimit:10;stroke-dasharray:none;stroke-opacity:1"
         id="path98" />
      <path
         d="m 334.871,868.281 7.344,7.633 -10.504,-1.387 z"
         style="fill:#000000;fill-opacity:1;fill-rule:nonzero;stroke:#000000;stroke-width:1;stroke-linecap:butt;stroke-linejoin:miter;stroke-miterlimit:10;stroke-dasharray:none;stroke-opacity:1"
         id="path100" />
      <text
         xml:space="preserve"
         style="font-variant:normal;font-weight:normal;font-size:14.0002px;font-family:'Times New Roman';-inkscape-font-specification:TimesNewRomanPSMT;writing-mode:lr-tb;fill:#000000;fill-opacity:1;fill-rule:nonzero;stroke:none"
         id="text106"
         x="300.18112"
         y="839.16016"><tspan
           x="300.18112 304.6752 314.43338 321.92349 331.66766 339.91382 346.66193 355.65009 365.39426 373.64041"
           y="839.16016"
           sodipodi:role="line"
           id="tspan102">INPUT_CALC</tspan><tspan
           x="328.68112 334.67322 341.42136 348.16946"
           y="854.16016"
           sodipodi:role="line"
           id="tspan104">code</tspan></text>
      <path
         d="m 399.605,66.871 c 0,14.766 -41.714,26.738 -93.175,26.738 -51.461,0 -93.176,-11.972 -93.176,-26.738 0,-14.769 41.715,-26.742 93.176,-26.742 51.461,0 93.175,11.973 93.175,26.742"
         style="fill:#00719e;fill-opacity:0.6017316;fill-rule:nonzero;stroke:none;stroke-opacity:1"
         id="path108" />
      <text
         xml:space="preserve"
         transform="translate(258.92969,63.070312)"
         style="font-variant:normal;font-weight:normal;font-size:14.0002px;font-family:'Times New Roman';-inkscape-font-specification:TimesNewRomanPSMT;writing-mode:lr-tb;fill:#000000;fill-opacity:1;fill-rule:nonzero;stroke:none"
         id="text114"><tspan
           x="0 8.9881563 15.736275 22.484392 28.476496 32.228561 36.722641 43.470757 49.462864 56.210979 62.959099 69.707214 76.45533 83.217453 89.965569"
           y="0"
           sodipodi:role="line"
           id="tspan110">Code (7e98d997)</tspan><tspan
           x="-10.500001 -3.7518835 2.9962342 9.7443514 16.50647 21.000547 26.992653 30.730717 36.70882 43.47094 56.197163 59.935226 66.683342 72.675446 78.667557 82.405617 89.153732 95.901855 101.15195"
           y="15.000001"
           sodipodi:role="line"
           id="tspan112">pdb_fetch@localhost</tspan></text>
      <path
         d="m 264.93,159.738 h 259 v 53 h -259 z"
         style="fill:#fe7d17;fill-opacity:0.70129865;fill-rule:nonzero;stroke:none"
         id="path116" />
      <text
         xml:space="preserve"
         transform="translate(272.92969,174.94141)"
         style="font-variant:normal;font-weight:normal;font-size:14.0002px;font-family:'Times New Roman';-inkscape-font-specification:TimesNewRomanPSMT;writing-mode:lr-tb;fill:#000000;fill-opacity:1;fill-rule:nonzero;stroke:none"
         id="text124"><tspan
           x="0 7.5041308 14.252249 20.230352 23.968418 27.706482 32.956573 39.704693 46.466808 54.698952 61.447071 68.19519 74.943306 81.691422 86.199501 92.191605 95.929672 101.90778 108.65589 121.39612 125.13418 131.88229 137.8744 143.8665 147.60457 154.35269 161.10081 166.35091 170.08896 178.32111 182.07317 186.58125 193.32938 200.07748 206.82561 212.8177 217.31178 224.05991 230.80803 237.55614"
           y="0"
           sodipodi:role="line"
           id="tspan118">ShellJob&lt;pdb_fetch@localhost&gt; (b17af9d7)</tspan><tspan
           x="82 89.504135 93.242203 99.220306 102.95837 108.95047 112.68854 116.44061 120.93468 124.67274 131.42087 135.15894 140.40903 147.15714 153.14925"
           y="15.000001"
           sodipodi:role="line"
           id="tspan120">State: finished</tspan><tspan
           x="86.5 94.732147 101.49426 105.23233 108.9704 112.70846 121.69662 128.44473 135.20685 141.18495 144.92302 148.67509"
           y="30.000004"
           sodipodi:role="line"
           id="tspan122">Exit Code: 0</tspan></text>
      <path
         d="m 325.523,93.336 c 12.715,16.957 29.563,39.43 43.418,57.906"
         style="fill:none;stroke:#000000;stroke-width:1;stroke-linecap:butt;stroke-linejoin:miter;stroke-miterlimit:10;stroke-dasharray:none;stroke-opacity:1"
         id="path126" />
      <path
         d="m 371.871,149.316 3.199,10.102 -8.8,-5.902 z"
         style="fill:#000000;fill-opacity:1;fill-rule:nonzero;stroke:#000000;stroke-width:1;stroke-linecap:butt;stroke-linejoin:miter;stroke-miterlimit:10;stroke-dasharray:none;stroke-opacity:1"
         id="path128" />
      <text
         xml:space="preserve"
         style="font-variant:normal;font-weight:normal;font-size:14.0002px;font-family:'Times New Roman';-inkscape-font-specification:TimesNewRomanPSMT;writing-mode:lr-tb;fill:#000000;fill-opacity:1;fill-rule:nonzero;stroke:none"
         id="text134"
         x="356.93091"
         y="122.19161"><tspan
           x="356.93091 361.42499 371.18317 378.67331 388.41748 396.6636 403.41174 412.3999 422.14404 430.3902"
           y="122.19161"
           sodipodi:role="line"
           id="tspan130">INPUT_CALC</tspan><tspan
           x="385.43091 391.42303 398.17114 404.91925"
           y="137.19162"
           sodipodi:role="line"
           id="tspan132">code</tspan></text>
      <path
         d="m 547.418,66.871 c 0,9.941 -29.098,18 -64.988,18 -35.891,0 -64.989,-8.059 -64.989,-18 0,-9.941 29.098,-18 64.989,-18 35.89,0 64.988,8.059 64.988,18"
         style="fill:#30ba08;fill-opacity:0.60262007;fill-rule:nonzero;stroke:none"
         id="path136" />
      <text
         xml:space="preserve"
         transform="translate(440.42969,70.570312)"
         style="font-variant:normal;font-weight:normal;font-size:14.0002px;font-family:'Times New Roman';-inkscape-font-specification:TimesNewRomanPSMT;writing-mode:lr-tb;fill:#000000;fill-opacity:1;fill-rule:nonzero;stroke:none"
         id="text140"><tspan
           x="0 8.2321434 11.970208 17.220301 20.958364 24.71043 29.21851 35.196613 41.944733 48.706848 55.454967 62.203083 68.19519 74.173294 78.681374"
           y="0"
           sodipodi:role="line"
           id="tspan138">List (a6b77ecf)</tspan></text>
      <path
         d="m 477.117,84.926 c -5.484,15.812 -15.148,39.441 -28.687,56.812 -2.946,3.778 -6.278,7.434 -9.805,10.91"
         style="fill:none;stroke:#000000;stroke-width:1;stroke-linecap:butt;stroke-linejoin:miter;stroke-miterlimit:10;stroke-dasharray:none;stroke-opacity:1"
         id="path142" />
      <path
         d="m 440.887,155.32 -9.723,4.203 4.981,-9.351 z"
         style="fill:#000000;fill-opacity:1;fill-rule:nonzero;stroke:#000000;stroke-width:1;stroke-linecap:butt;stroke-linejoin:miter;stroke-miterlimit:10;stroke-dasharray:none;stroke-opacity:1"
         id="path144" />
      <text
         xml:space="preserve"
         style="font-variant:normal;font-weight:normal;font-size:14.0002px;font-family:'Times New Roman';-inkscape-font-specification:TimesNewRomanPSMT;writing-mode:lr-tb;fill:#000000;fill-opacity:1;fill-rule:nonzero;stroke:none"
         id="text150"
         x="475.17703"
         y="122.19161"><tspan
           x="475.17703 479.67111 489.42926 496.9194 506.66357 514.90973 521.65784 530.646 540.39014 548.63629"
           y="122.19161"
           sodipodi:role="line"
           id="tspan146">INPUT_CALC</tspan><tspan
           x="487.67703 493.66913 498.16321 504.91132 511.65945 522.90167 528.89374 535.64185 539.37994"
           y="137.1916"
           sodipodi:role="line"
           id="tspan148">arguments</tspan></text>
      <path
         d="m 506.789,305.609 c 0,14.77 -50.305,26.743 -112.359,26.743 -62.055,0 -112.36,-11.973 -112.36,-26.743 0,-14.769 50.305,-26.738 112.36,-26.738 62.054,0 112.359,11.969 112.359,26.738"
         style="fill:#30ba08;fill-opacity:0.60262007;fill-rule:nonzero;stroke:none"
         id="path152" />
      <text
         xml:space="preserve"
         transform="translate(322.92969,301.80859)"
         style="font-variant:normal;font-weight:normal;font-size:14.0002px;font-family:'Times New Roman';-inkscape-font-specification:TimesNewRomanPSMT;writing-mode:lr-tb;fill:#000000;fill-opacity:1;fill-rule:nonzero;stroke:none"
         id="text158"><tspan
           x="0 7.5041308 11.242196 17.990314 24.738432 28.476496 34.468601 38.962681 42.700745 46.438808 52.430912 62.175083 68.167191 71.905251 77.883354 81.635422 86.143501 92.891617 99.63974 106.38786 113.13597 119.88409 126.64621 133.39432 137.8884"
           y="0"
           sodipodi:role="line"
           id="tspan154">SinglefileData (d5b8571f)</tspan><tspan
           x="54.499996 59.750088 63.488152 70.236267 76.98439 83.732506"
           y="15.000001"
           sodipodi:role="line"
           id="tspan156">stdout</tspan></text>
      <path
         d="m 394.43,212.996 c 0,16.246 0,37.473 0,55.399"
         style="fill:none;stroke:#000000;stroke-width:1;stroke-linecap:butt;stroke-linejoin:miter;stroke-miterlimit:10;stroke-dasharray:none;stroke-opacity:1"
         id="path160" />
      <path
         d="m 397.93,268.508 -3.5,10 -3.5,-10 z"
         style="fill:#000000;fill-opacity:1;fill-rule:nonzero;stroke:#000000;stroke-width:1;stroke-linecap:butt;stroke-linejoin:miter;stroke-miterlimit:10;stroke-dasharray:none;stroke-opacity:1"
         id="path162" />
      <text
         xml:space="preserve"
         style="font-variant:normal;font-weight:normal;font-size:14.0002px;font-family:'Times New Roman';-inkscape-font-specification:TimesNewRomanPSMT;writing-mode:lr-tb;fill:#000000;fill-opacity:1;fill-rule:nonzero;stroke:none"
         id="text168"
         x="406.42642"
         y="244.1908"><tspan
           x="406.42642 415.41455 424.40271 432.63486 440.88101 449.12717"
           y="244.1908"
           sodipodi:role="line"
           id="tspan164">CREATE</tspan><tspan
           x="415.42642 420.67651 424.41455 431.16269 437.9108 444.65891"
           y="259.1908"
           sodipodi:role="line"
           id="tspan166">stdout</tspan></text>
      <path
         d="m 394.43,332.66 c 0,16.371 0,37.711 0,55.645"
         style="fill:none;stroke:#000000;stroke-width:1;stroke-linecap:butt;stroke-linejoin:miter;stroke-miterlimit:10;stroke-dasharray:none;stroke-opacity:1"
         id="path170" />
      <path
         d="m 397.93,388.41 -3.5,10 -3.5,-10 z"
         style="fill:#000000;fill-opacity:1;fill-rule:nonzero;stroke:#000000;stroke-width:1;stroke-linecap:butt;stroke-linejoin:miter;stroke-miterlimit:10;stroke-dasharray:none;stroke-opacity:1"
         id="path172" />
      <text
         xml:space="preserve"
         style="font-variant:normal;font-weight:normal;font-size:14.0002px;font-family:'Times New Roman';-inkscape-font-specification:TimesNewRomanPSMT;writing-mode:lr-tb;fill:#000000;fill-opacity:1;fill-rule:nonzero;stroke:none"
         id="text178"
         x="401.92761"
         y="360.9299"><tspan
           x="401.92761 406.42169 416.17987 423.67001 433.41418 441.66031 448.40845 457.39661 467.14075 475.3869"
           y="360.9299"
           sodipodi:role="line"
           id="tspan174">INPUT_CALC</tspan><tspan
           x="410.42761 417.17575 423.92386 430.67197 436.66409 441.91418 448.66229 455.4104 462.15851 468.90665"
           y="375.9299"
           sodipodi:role="line"
           id="tspan176">nodes__pdb</tspan></text>
      <path
         d="m 654.418,305.609 c 0,9.942 -29.098,18 -64.988,18 -35.891,0 -64.989,-8.058 -64.989,-18 0,-9.941 29.098,-18 64.989,-18 35.89,0 64.988,8.059 64.988,18"
         style="fill:#30ba08;fill-opacity:0.60262007;fill-rule:nonzero;stroke:none"
         id="path180" />
      <text
         xml:space="preserve"
         transform="translate(547.42969,309.30859)"
         style="font-variant:normal;font-weight:normal;font-size:14.0002px;font-family:'Times New Roman';-inkscape-font-specification:TimesNewRomanPSMT;writing-mode:lr-tb;fill:#000000;fill-opacity:1;fill-rule:nonzero;stroke:none"
         id="text184"><tspan
           x="0 8.2321434 11.970208 17.220301 20.958364 24.71043 29.21851 33.712589 39.704693 46.452808 52.444916 59.193031 65.941147 72.68927 78.681374"
           y="0"
           sodipodi:role="line"
           id="tspan182">List (fe1a793a)</tspan></text>
      <path
         d="m 567.668,322.797 c -21.414,15.609 -55.301,39.484 -86.238,57.683 -7.614,4.481 -15.75,8.946 -23.875,13.215"
         style="fill:none;stroke:#000000;stroke-width:1;stroke-linecap:butt;stroke-linejoin:miter;stroke-miterlimit:10;stroke-dasharray:none;stroke-opacity:1"
         id="path186" />
      <path
         d="m 458.906,396.938 -10.492,1.484 7.274,-7.703 z"
         style="fill:#000000;fill-opacity:1;fill-rule:nonzero;stroke:#000000;stroke-width:1;stroke-linecap:butt;stroke-linejoin:miter;stroke-miterlimit:10;stroke-dasharray:none;stroke-opacity:1"
         id="path188" />
      <text
         xml:space="preserve"
         style="font-variant:normal;font-weight:normal;font-size:14.0002px;font-family:'Times New Roman';-inkscape-font-specification:TimesNewRomanPSMT;writing-mode:lr-tb;fill:#000000;fill-opacity:1;fill-rule:nonzero;stroke:none"
         id="text194"
         x="543.1795"
         y="360.9299"><tspan
           x="543.1795 547.67352 557.4317 564.92188 574.66602 582.91217 589.66028 598.64844 608.39264 616.63873"
           y="360.9299"
           sodipodi:role="line"
           id="tspan190">INPUT_CALC</tspan><tspan
           x="555.6795 561.67157 566.16565 572.91376 579.66193 590.90411 596.89618 603.64429 607.38239"
           y="375.9299"
           sodipodi:role="line"
           id="tspan192">arguments</tspan></text>
      <path
         d="m 506.375,544.352 c 0,14.765 -50.117,26.738 -111.945,26.738 -61.825,0 -111.946,-11.973 -111.946,-26.738 0,-14.77 50.121,-26.743 111.946,-26.743 61.828,0 111.945,11.973 111.945,26.743"
         style="fill:#30ba08;fill-opacity:0.60262007;fill-rule:nonzero;stroke:none"
         id="path196" />
      <text
         xml:space="preserve"
         transform="translate(323.42969,540.55078)"
         style="font-variant:normal;font-weight:normal;font-size:14.0002px;font-family:'Times New Roman';-inkscape-font-specification:TimesNewRomanPSMT;writing-mode:lr-tb;fill:#000000;fill-opacity:1;fill-rule:nonzero;stroke:none"
         id="text202"><tspan
           x="0 7.5041308 11.242196 17.990314 24.738432 28.476496 34.468601 38.962681 42.700745 46.438808 52.430912 62.175083 68.167191 71.905251 77.883354 81.635422 86.143501 92.891617 98.88372 105.63184 112.37996 116.87404 123.62215 130.38428 136.36238"
           y="0"
           sodipodi:role="line"
           id="tspan198">SinglefileData (be99f6be)</tspan><tspan
           x="54.000004 59.250095 62.988163 69.736282 76.484398 83.232513"
           y="15.000001"
           sodipodi:role="line"
           id="tspan200">stdout</tspan></text>
      <path
         d="m 394.43,451.738 c 0,16.246 0,37.469 0,55.399"
         style="fill:none;stroke:#000000;stroke-width:1;stroke-linecap:butt;stroke-linejoin:miter;stroke-miterlimit:10;stroke-dasharray:none;stroke-opacity:1"
         id="path204" />
      <path
         d="m 397.93,507.246 -3.5,10 -3.5,-10 z"
         style="fill:#000000;fill-opacity:1;fill-rule:nonzero;stroke:#000000;stroke-width:1;stroke-linecap:butt;stroke-linejoin:miter;stroke-miterlimit:10;stroke-dasharray:none;stroke-opacity:1"
         id="path206" />
      <text
         xml:space="preserve"
         style="font-variant:normal;font-weight:normal;font-size:14.0002px;font-family:'Times New Roman';-inkscape-font-specification:TimesNewRomanPSMT;writing-mode:lr-tb;fill:#000000;fill-opacity:1;fill-rule:nonzero;stroke:none"
         id="text212"
         x="406.42642"
         y="480.67969"><tspan
           x="406.42642 415.41458 424.40274 432.63489 440.88101 449.12717"
           y="480.67969"
           sodipodi:role="line"
           id="tspan208">CREATE</tspan><tspan
           x="415.42642 420.67651 424.41458 431.16269 437.91083 444.65894"
           y="495.67969"
           sodipodi:role="line"
           id="tspan210">stdout</tspan></text>
      <path
         d="m 394.43,571.398 c 0,16.372 0,37.715 0,55.649"
         style="fill:none;stroke:#000000;stroke-width:1;stroke-linecap:butt;stroke-linejoin:miter;stroke-miterlimit:10;stroke-dasharray:none;stroke-opacity:1"
         id="path214" />
      <path
         d="m 397.93,627.148 -3.5,10 -3.5,-10 z"
         style="fill:#000000;fill-opacity:1;fill-rule:nonzero;stroke:#000000;stroke-width:1;stroke-linecap:butt;stroke-linejoin:miter;stroke-miterlimit:10;stroke-dasharray:none;stroke-opacity:1"
         id="path216" />
      <text
         xml:space="preserve"
         style="font-variant:normal;font-weight:normal;font-size:14.0002px;font-family:'Times New Roman';-inkscape-font-specification:TimesNewRomanPSMT;writing-mode:lr-tb;fill:#000000;fill-opacity:1;fill-rule:nonzero;stroke:none"
         id="text222"
         x="401.92761"
         y="598.17249"><tspan
           x="401.92761 406.42169 416.17987 423.66998 433.41415 441.66031 448.40842 457.39658 467.14075 475.3869"
           y="598.17249"
           sodipodi:role="line"
           id="tspan218">INPUT_CALC</tspan><tspan
           x="410.42761 417.17572 423.92383 430.67197 436.66406 441.91415 448.66226 455.4104 462.15851 468.90662"
           y="613.17249"
           sodipodi:role="line"
           id="tspan220">nodes__pdb</tspan></text>
      <path
         d="m 658.316,544.352 c 0,9.941 -29.945,18 -66.886,18 -36.942,0 -66.887,-8.059 -66.887,-18 0,-9.942 29.945,-18 66.887,-18 36.941,0 66.886,8.058 66.886,18"
         style="fill:#30ba08;fill-opacity:0.60262007;fill-rule:nonzero;stroke:none"
         id="path224" />
      <text
         xml:space="preserve"
         transform="translate(547.92969,548.05078)"
         style="font-variant:normal;font-weight:normal;font-size:14.0002px;font-family:'Times New Roman';-inkscape-font-specification:TimesNewRomanPSMT;writing-mode:lr-tb;fill:#000000;fill-opacity:1;fill-rule:nonzero;stroke:none"
         id="text228"><tspan
           x="0 8.2321434 11.970208 17.220301 20.958364 24.71043 29.21851 35.966625 41.944733 48.706848 55.454967 61.433071 68.19519 74.943306 81.691422"
           y="0"
           sodipodi:role="line"
           id="tspan226">List (2a35ed23)</tspan></text>
      <path
         d="m 569.219,561.496 c -21.844,15.578 -56.383,39.43 -87.789,57.723 -7.633,4.449 -15.778,8.894 -23.91,13.152"
         style="fill:none;stroke:#000000;stroke-width:1;stroke-linecap:butt;stroke-linejoin:miter;stroke-miterlimit:10;stroke-dasharray:none;stroke-opacity:1"
         id="path230" />
      <path
         d="m 458.863,635.617 -10.488,1.477 7.281,-7.696 z"
         style="fill:#000000;fill-opacity:1;fill-rule:nonzero;stroke:#000000;stroke-width:1;stroke-linecap:butt;stroke-linejoin:miter;stroke-miterlimit:10;stroke-dasharray:none;stroke-opacity:1"
         id="path232" />
      <text
         xml:space="preserve"
         style="font-variant:normal;font-weight:normal;font-size:14.0002px;font-family:'Times New Roman';-inkscape-font-specification:TimesNewRomanPSMT;writing-mode:lr-tb;fill:#000000;fill-opacity:1;fill-rule:nonzero;stroke:none"
         id="text238"
         x="543.1795"
         y="598.17249"><tspan
           x="543.1795 547.67358 557.43176 564.92188 574.66602 582.91217 589.66028 598.64844 608.39264 616.63879"
           y="598.17249"
           sodipodi:role="line"
           id="tspan234">INPUT_CALC</tspan><tspan
           x="555.6795 561.67157 566.16565 572.91382 579.66193 590.90411 596.89618 603.64435 607.38239"
           y="613.17249"
           sodipodi:role="line"
           id="tspan236">arguments</tspan></text>
      <path
         d="m 504.133,783.09 c 0,14.769 -49.117,26.742 -109.703,26.742 -60.586,0 -109.703,-11.973 -109.703,-26.742 0,-14.77 49.117,-26.738 109.703,-26.738 60.586,0 109.703,11.968 109.703,26.738"
         style="fill:#30ba08;fill-opacity:0.60262007;fill-rule:nonzero;stroke:none"
         id="path240" />
      <text
         xml:space="preserve"
         transform="translate(324.92969,779.28906)"
         style="font-variant:normal;font-weight:normal;font-size:14.0002px;font-family:'Times New Roman';-inkscape-font-specification:TimesNewRomanPSMT;writing-mode:lr-tb;fill:#000000;fill-opacity:1;fill-rule:nonzero;stroke:none"
         id="text246"><tspan
           x="0 7.5041308 11.242196 17.990314 24.738432 28.476496 34.468601 38.962681 42.700745 46.438808 52.430912 62.175083 68.167191 71.905251 77.883354 81.635422 86.143501 92.121605 98.88372 105.63184 110.12592 116.87404 121.38212 127.36022 134.12234"
           y="0"
           sodipodi:role="line"
           id="tspan242">SinglefileData (c48f7fe3)</tspan><tspan
           x="52.500004 57.750095 61.488163 68.236282 74.984398 81.732513"
           y="15.000001"
           sodipodi:role="line"
           id="tspan244">stdout</tspan></text>
      <path
         d="m 394.43,690.477 c 0,16.246 0,37.468 0,55.398"
         style="fill:none;stroke:#000000;stroke-width:1;stroke-linecap:butt;stroke-linejoin:miter;stroke-miterlimit:10;stroke-dasharray:none;stroke-opacity:1"
         id="path248" />
      <path
         d="m 397.93,745.988 -3.5,10 -3.5,-10 z"
         style="fill:#000000;fill-opacity:1;fill-rule:nonzero;stroke:#000000;stroke-width:1;stroke-linecap:butt;stroke-linejoin:miter;stroke-miterlimit:10;stroke-dasharray:none;stroke-opacity:1"
         id="path250" />
      <text
         xml:space="preserve"
         style="font-variant:normal;font-weight:normal;font-size:14.0002px;font-family:'Times New Roman';-inkscape-font-specification:TimesNewRomanPSMT;writing-mode:lr-tb;fill:#000000;fill-opacity:1;fill-rule:nonzero;stroke:none"
         id="text256"
         x="406.42642"
         y="719.42188"><tspan
           x="406.42642 415.41458 424.40274 432.63489 440.88101 449.12717"
           y="719.42188"
           sodipodi:role="line"
           id="tspan252">CREATE</tspan><tspan
           x="415.42642 420.67651 424.41458 431.16269 437.91083 444.65894"
           y="734.42188"
           sodipodi:role="line"
           id="tspan254">stdout</tspan></text>
      <path
         d="m 394.43,810.137 c 0,16.375 0,37.715 0,55.648"
         style="fill:none;stroke:#000000;stroke-width:1;stroke-linecap:butt;stroke-linejoin:miter;stroke-miterlimit:10;stroke-dasharray:none;stroke-opacity:1"
         id="path258" />
      <path
         d="m 397.93,865.891 -3.5,10 -3.5,-10 z"
         style="fill:#000000;fill-opacity:1;fill-rule:nonzero;stroke:#000000;stroke-width:1;stroke-linecap:butt;stroke-linejoin:miter;stroke-miterlimit:10;stroke-dasharray:none;stroke-opacity:1"
         id="path260" />
      <text
         xml:space="preserve"
         style="font-variant:normal;font-weight:normal;font-size:14.0002px;font-family:'Times New Roman';-inkscape-font-specification:TimesNewRomanPSMT;writing-mode:lr-tb;fill:#000000;fill-opacity:1;fill-rule:nonzero;stroke:none"
         id="text266"
         x="401.92761"
         y="839.16016"><tspan
           x="401.92761 406.42169 416.17987 423.66998 433.41415 441.66031 448.40842 457.39658 467.14075 475.3869"
           y="839.16016"
           sodipodi:role="line"
           id="tspan262">INPUT_CALC</tspan><tspan
           x="410.42761 417.17572 423.92386 430.67197 436.66406 441.91415 448.66226 455.4104 462.15851 468.90662"
           y="854.16016"
           sodipodi:role="line"
           id="tspan264">nodes__pdb</tspan></text>
      <path
         d="m 654.52,783.09 c 0,9.941 -29.59,18 -66.09,18 -36.5,0 -66.09,-8.059 -66.09,-18 0,-9.942 29.59,-18 66.09,-18 36.5,0 66.09,8.058 66.09,18"
         style="fill:#30ba08;fill-opacity:0.60262007;fill-rule:nonzero;stroke:none"
         id="path268" />
      <text
         xml:space="preserve"
         transform="translate(545.42969,786.78906)"
         style="font-variant:normal;font-weight:normal;font-size:14.0002px;font-family:'Times New Roman';-inkscape-font-specification:TimesNewRomanPSMT;writing-mode:lr-tb;fill:#000000;fill-opacity:1;fill-rule:nonzero;stroke:none"
         id="text272"><tspan
           x="0 8.2321434 11.970208 17.220301 20.958364 24.71043 29.21851 35.966625 41.944733 47.936836 54.684952 60.677059 67.425179 74.173294 80.92141"
           y="0"
           sodipodi:role="line"
           id="tspan270">List (4ceba415)</tspan></text>
      <path
         d="m 566.891,800.297 c -21.196,15.629 -54.758,39.512 -85.461,57.664 -7.606,4.496 -15.735,8.969 -23.856,13.246"
         style="fill:none;stroke:#000000;stroke-width:1;stroke-linecap:butt;stroke-linejoin:miter;stroke-miterlimit:10;stroke-dasharray:none;stroke-opacity:1"
         id="path274" />
      <path
         d="m 458.926,874.449 -10.492,1.489 7.273,-7.708 z"
         style="fill:#000000;fill-opacity:1;fill-rule:nonzero;stroke:#000000;stroke-width:1;stroke-linecap:butt;stroke-linejoin:miter;stroke-miterlimit:10;stroke-dasharray:none;stroke-opacity:1"
         id="path276" />
      <text
         xml:space="preserve"
         style="font-variant:normal;font-weight:normal;font-size:14.0002px;font-family:'Times New Roman';-inkscape-font-specification:TimesNewRomanPSMT;writing-mode:lr-tb;fill:#000000;fill-opacity:1;fill-rule:nonzero;stroke:none"
         id="text282"
         x="543.1795"
         y="839.16016"><tspan
           x="543.1795 547.67358 557.43176 564.92188 574.66602 582.91217 589.66028 598.64844 608.39264 616.63879"
           y="839.16016"
           sodipodi:role="line"
           id="tspan278">INPUT_CALC</tspan><tspan
           x="555.6795 561.67157 566.16565 572.91382 579.66193 590.90411 596.89618 603.64435 607.38239"
           y="854.16016"
           sodipodi:role="line"
           id="tspan280">arguments</tspan></text>
      <path
         d="m 394.43,929.219 c 0,16.246 0,37.469 0,55.394"
         style="fill:none;stroke:#000000;stroke-width:1;stroke-linecap:butt;stroke-linejoin:miter;stroke-miterlimit:10;stroke-dasharray:none;stroke-opacity:1"
         id="path284" />
      <path
         d="m 397.93,984.727 -3.5,10 -3.5,-10 z"
         style="fill:#000000;fill-opacity:1;fill-rule:nonzero;stroke:#000000;stroke-width:1;stroke-linecap:butt;stroke-linejoin:miter;stroke-miterlimit:10;stroke-dasharray:none;stroke-opacity:1"
         id="path286" />
      <text
         xml:space="preserve"
         style="font-variant:normal;font-weight:normal;font-size:14.0002px;font-family:'Times New Roman';-inkscape-font-specification:TimesNewRomanPSMT;writing-mode:lr-tb;fill:#000000;fill-opacity:1;fill-rule:nonzero;stroke:none"
         id="text292"
         x="406.42642"
         y="958.16016"><tspan
           x="406.42642 415.41458 424.40274 432.63489 440.88101 449.12717"
           y="958.16016"
           sodipodi:role="line"
           id="tspan288">CREATE</tspan><tspan
           x="415.42642 420.67651 424.41458 431.16269 437.91083 444.65894"
           y="973.16016"
           sodipodi:role="line"
           id="tspan290">stdout</tspan></text>
    </g>
  </g>
</svg>
